# Blender v3.6.2 OBJ File: 'assets.blend1'
# www.blender.org
o 8x8_Plane.001
v -3.000000 1.000000 -1.499999
v -3.000000 1.000000 1.500000
v -3.000000 0.000000 -1.000000
v -3.000000 0.000000 1.000000
v -3.000000 4.000000 -1.999999
v -3.000000 4.000000 2.000000
v 2.450706 4.000000 -0.780885
v 1.976038 1.000000 0.495480
v 2.032742 1.000000 -0.211575
v -0.659985 4.000000 2.232149
v -0.576121 1.000000 1.739232
v -0.528462 0.000000 1.190361
v -0.684275 0.000000 -1.448556
v -0.723707 1.000000 -1.946998
v -0.763139 4.000000 -2.445441
v 1.719640 4.000000 1.769975
v 2.487526 4.000000 0.802833
v 1.427797 1.000000 1.092158
v 1.396197 0.000000 0.106579
v 1.545195 1.000000 -0.739786
v 1.872781 4.000000 -1.685764
v -1.844739 1.000000 1.638292
v -1.834902 0.000000 1.215308
v -2.018312 1.000000 -1.740551
v -2.063340 4.000000 -2.236170
v -1.911127 4.000000 1.998893
v -1.925494 0.000000 -1.170879
v 0.553702 1.000000 1.776856
v 0.626661 0.000000 0.958088
v 0.586316 1.000000 -1.678997
v 0.739385 4.000000 -2.282493
v 0.493382 4.000000 2.271760
v 0.382817 0.000000 -1.139805
vt 0.000000 0.000000
vt 0.000000 0.000000
vt 0.000000 0.000000
vt 0.000000 0.000000
vt 0.000000 0.000000
vt 0.000000 0.000000
vt 0.000000 0.000000
vt 0.000000 0.000000
vt 0.000000 0.000000
vt 0.000000 0.000000
vt 0.000000 0.000000
vt 0.000000 0.000000
vt 0.000000 0.000000
vt 0.000000 0.000000
vt 0.000000 0.000000
vt 0.000000 0.000000
vt 0.000000 0.000000
vt 0.000000 0.000000
vt 0.000000 0.000000
vt 0.000000 0.000000
vt 0.000000 0.000000
vt 0.000000 0.000000
vt 0.000000 0.000000
vt 0.000000 0.000000
vt 0.000000 0.000000
vt 0.000000 0.000000
vt 0.000000 0.000000
vt 0.000000 0.000000
vt 0.000000 0.000000
vt 0.000000 0.000000
vt 0.000000 0.000000
vt 0.000000 0.000000
vt 0.000000 0.000000
vn -0.8513 0.5202 -0.0683
vn -0.6061 0.5680 -0.5569
vn -0.8153 0.2532 0.5207
vn -0.9896 0.1422 0.0230
vn -0.0000 1.0000 -0.0000
vn 0.1568 0.1639 0.9739
vn 0.1409 0.4461 0.8838
vn -0.0167 0.4805 -0.8768
vn 0.0782 0.1638 -0.9834
vn -0.6189 0.4666 0.6318
vn -0.4567 0.1978 0.8674
vn -0.6066 0.5643 0.5599
vn -0.6123 0.5647 -0.5533
vn -0.5999 0.2314 -0.7659
vn 0.1180 0.1211 -0.9856
vn 0.1631 0.4412 -0.8825
vn 0.2063 0.4987 0.8419
vn 0.2413 0.1617 0.9569
vn 0.0328 0.1633 -0.9860
vn -0.1548 0.6191 -0.7699
vn -0.1807 0.4330 0.8831
vn -0.1064 0.1616 0.9811
vn -0.7228 0.1913 -0.6641
vn -0.7160 0.2252 0.6608
vn -0.9814 0.1754 -0.0787
vn 0.1554 0.1633 0.9743
vn 0.1892 0.4992 0.8456
vn 0.0731 0.3891 -0.9183
vn 0.1819 0.1213 -0.9758
vn -0.6507 0.5447 0.5290
vn -0.6699 0.2888 0.6840
vn -0.5289 0.5142 -0.6752
vn -0.3748 0.1436 -0.9159
vn -0.0010 0.1644 -0.9864
vn 0.1095 0.3881 -0.9151
vn 0.1408 0.4428 0.8855
vn 0.2349 0.1598 0.9588
vn 0.0339 0.1630 -0.9861
vn 0.0292 0.4820 -0.8757
vn -0.2410 0.4982 0.8329
vn -0.1963 0.2030 0.9593
vn -0.7654 0.2118 -0.6077
s off
f 9/1/1 19/2/1 8/3/1
f 8/3/2 19/2/2 18/4/2
f 20/5/3 7/6/3 21/7/3
f 9/1/4 17/8/4 7/6/4
f 33/9/5 29/10/5 19/2/5
f 12/11/5 27/12/5 23/13/5
f 25/14/6 14/15/6 15/16/6
f 24/17/7 13/18/7 14/15/7
f 23/13/8 11/19/8 12/11/8
f 22/20/9 10/21/9 11/19/9
f 33/9/10 20/5/10 30/22/10
f 30/22/11 21/7/11 31/23/11
f 9/1/12 20/5/12 19/2/12
f 29/10/13 18/4/13 19/2/13
f 28/24/14 16/25/14 18/4/14
f 2/26/15 26/27/15 22/20/15
f 2/26/16 23/13/16 4/28/16
f 1/29/17 27/12/17 24/17/17
f 5/30/18 24/17/18 25/14/18
f 4/28/5 27/12/5 3/31/5
f 11/19/19 32/32/19 28/24/19
f 12/11/20 28/24/20 29/10/20
f 13/18/21 30/22/21 14/15/21
f 14/15/22 31/23/22 15/16/22
f 12/11/5 33/9/5 13/18/5
f 18/4/23 17/8/23 8/3/23
f 20/5/24 9/1/24 7/6/24
f 9/1/25 8/3/25 17/8/25
f 12/11/5 13/18/5 27/12/5
f 25/14/26 24/17/26 14/15/26
f 24/17/27 27/12/27 13/18/27
f 23/13/28 22/20/28 11/19/28
f 22/20/29 26/27/29 10/21/29
f 33/9/30 19/2/30 20/5/30
f 30/22/31 20/5/31 21/7/31
f 29/10/32 28/24/32 18/4/32
f 28/24/33 32/32/33 16/25/33
f 2/26/34 6/33/34 26/27/34
f 2/26/35 22/20/35 23/13/35
f 1/29/36 3/31/36 27/12/36
f 5/30/37 1/29/37 24/17/37
f 4/28/5 23/13/5 27/12/5
f 11/19/38 10/21/38 32/32/38
f 12/11/39 11/19/39 28/24/39
f 13/18/40 33/9/40 30/22/40
f 14/15/41 30/22/41 31/23/41
f 12/11/5 29/10/5 33/9/5
f 18/4/42 16/25/42 17/8/42
