# Blender v3.6.2 OBJ File: 'assets.blend1'
# www.blender.org
o Corridor__8x6_Plane.002
v -4.000000 1.000000 -1.499999
v -4.000000 1.000000 1.500000
v -4.000000 0.000000 -1.000000
v -4.000000 0.000000 1.000000
v -4.000000 4.000000 -1.999999
v -4.000000 4.000000 2.000000
v 4.000000 1.000000 -1.499999
v 4.000000 1.000000 1.500000
v 4.000000 0.000000 -1.000000
v 4.000000 0.000000 1.000000
v 4.000000 4.000000 -1.999999
v 4.000000 4.000000 2.000000
v -1.659985 4.000000 2.232149
v -1.576121 1.000000 1.739232
v -1.569289 0.000000 0.455474
v -1.684275 0.000000 -1.448556
v -1.723707 1.000000 -1.946998
v -1.763139 4.000000 -2.445441
v 2.670434 4.000000 2.395354
v 2.651614 0.000000 -1.329083
v 2.707211 1.000000 1.898460
v 2.710207 0.000000 1.054759
v 2.654645 1.000000 -1.826758
v 2.657677 4.000000 -2.324434
v -2.871957 1.000000 1.502202
v -2.834902 0.000000 0.466813
v -3.153766 1.000000 -1.503506
v -3.198794 4.000000 -1.999125
v -2.911127 4.000000 1.998893
v -3.108739 0.000000 -1.007889
v 0.975971 1.000000 1.912310
v 0.980885 0.000000 0.848580
v 0.827132 1.000000 -1.679633
v 0.848647 4.000000 -2.174257
v 0.915651 4.000000 2.407215
v 0.805616 0.000000 -1.185009
vt 0.000000 0.000000
vt 0.000000 0.000000
vt 0.000000 0.000000
vt 0.000000 0.000000
vt 0.000000 0.000000
vt 0.000000 0.000000
vt 0.000000 0.000000
vt 0.000000 0.000000
vt 0.000000 0.000000
vt 0.000000 0.000000
vt 0.000000 0.000000
vt 0.000000 0.000000
vt 0.000000 0.000000
vt 0.000000 0.000000
vt 0.000000 0.000000
vt 0.000000 0.000000
vt 0.000000 0.000000
vt 0.000000 0.000000
vt 0.000000 0.000000
vt 0.000000 0.000000
vt 0.000000 0.000000
vt 0.000000 0.000000
vt 0.000000 0.000000
vt 0.000000 0.000000
vt 0.000000 0.000000
vt 0.000000 0.000000
vt 0.000000 0.000000
vt 0.000000 0.000000
vt 0.000000 0.000000
vt 0.000000 0.000000
vt 0.000000 0.000000
vt 0.000000 0.000000
vt 0.000000 0.000000
vt 0.000000 0.000000
vt 0.000000 0.000000
vt 0.000000 0.000000
vn -0.2909 0.1573 -0.9437
vn -0.0379 0.4469 -0.8938
vn -0.2124 0.4359 0.8746
vn -0.2319 0.1594 0.9596
vn 0.0000 1.0000 -0.0000
vn 0.2930 0.1605 0.9425
vn 0.2662 0.4384 0.8585
vn -0.0062 0.7192 -0.6948
vn 0.1775 0.1630 -0.9705
vn 0.0816 0.1630 0.9832
vn 0.0719 0.4442 0.8930
vn 0.0814 0.7264 -0.6825
vn -0.0079 0.1633 -0.9865
vn 0.0019 0.1634 -0.9866
vn -0.3053 0.6795 -0.6672
vn 0.0037 0.4472 0.8944
vn -0.0011 0.1644 0.9864
vn 0.0667 0.1637 -0.9842
vn 0.0943 0.7856 -0.6115
vn -0.0935 0.4412 0.8925
vn -0.1019 0.1617 0.9816
vn -0.2816 0.1534 -0.9472
vn -0.2294 0.6273 -0.7443
vn -0.2133 0.4369 0.8738
vn -0.2330 0.1599 0.9592
vn 0.2924 0.1601 0.9428
vn 0.2657 0.4377 0.8590
vn 0.1116 0.7843 -0.6103
vn 0.1808 0.1644 -0.9697
vn 0.0792 0.1616 0.9837
vn 0.0698 0.4411 0.8948
vn -0.0061 0.6448 -0.7643
vn -0.0067 0.1626 -0.9867
vn -0.0010 0.1644 -0.9864
vn 0.0017 0.4472 -0.8944
vn 0.0079 0.4443 0.8958
vn 0.0041 0.1631 0.9866
vn 0.0669 0.1636 -0.9843
vn 0.0464 0.7279 -0.6841
vn -0.0944 0.4430 0.8915
vn -0.1029 0.1625 0.9813
s off
f 21/1/1 12/2/1 8/3/1
f 22/4/2 8/3/2 10/5/2
f 20/6/3 7/7/3 23/8/3
f 23/8/4 11/9/4 24/10/4
f 22/4/5 9/11/5 20/6/5
f 15/12/5 30/13/5 26/14/5
f 28/15/6 17/16/6 18/17/6
f 27/18/7 16/19/7 17/16/7
f 25/20/8 15/12/8 26/14/8
f 29/21/9 14/22/9 25/20/9
f 32/23/5 20/6/5 36/24/5
f 34/25/10 23/8/10 24/10/10
f 33/26/11 20/6/11 23/8/11
f 31/27/12 22/4/12 32/23/12
f 31/27/13 19/28/13 21/1/13
f 2/29/14 29/21/14 25/20/14
f 4/30/15 25/20/15 26/14/15
f 3/31/16 27/18/16 1/32/16
f 1/32/17 28/15/17 5/33/17
f 26/14/5 3/31/5 4/30/5
f 14/22/18 35/34/18 31/27/18
f 14/22/19 32/23/19 15/12/19
f 16/19/20 33/26/20 17/16/20
f 17/16/21 34/25/21 18/17/21
f 15/12/5 36/24/5 16/19/5
f 21/1/22 19/28/22 12/2/22
f 22/4/23 21/1/23 8/3/23
f 20/6/24 9/11/24 7/7/24
f 23/8/25 7/7/25 11/9/25
f 22/4/5 10/5/5 9/11/5
f 15/12/5 16/19/5 30/13/5
f 28/15/26 27/18/26 17/16/26
f 27/18/27 30/13/27 16/19/27
f 25/20/28 14/22/28 15/12/28
f 29/21/29 13/35/29 14/22/29
f 32/23/5 22/4/5 20/6/5
f 34/25/30 33/26/30 23/8/30
f 33/26/31 36/24/31 20/6/31
f 31/27/32 21/1/32 22/4/32
f 31/27/33 35/34/33 19/28/33
f 2/29/34 6/36/34 29/21/34
f 4/30/35 2/29/35 25/20/35
f 3/31/36 30/13/36 27/18/36
f 1/32/37 27/18/37 28/15/37
f 26/14/5 30/13/5 3/31/5
f 14/22/38 13/35/38 35/34/38
f 14/22/39 31/27/39 32/23/39
f 16/19/40 36/24/40 33/26/40
f 17/16/41 33/26/41 34/25/41
f 15/12/5 32/23/5 36/24/5
