# Blender 4.0.2
# www.blender.org
o shelf
v -1.380000 0.050000 1.420000
v -1.380000 0.150000 1.420000
v -1.380000 0.050000 0.920000
v -1.380000 0.150000 0.920000
v 1.380000 0.050000 1.420000
v 1.380000 0.150000 1.420000
v 1.380000 0.050000 0.920000
v 1.380000 0.150000 0.920000
v -1.400000 0.050000 1.500000
v -1.400000 1.700000 1.500000
v 1.400000 0.050000 1.500000
v 1.400000 1.700000 1.500000
v -1.400000 0.050000 1.420000
v -1.400000 1.700000 1.420000
v 1.400000 0.050000 1.420000
v 1.400000 1.700000 1.420000
v -1.350000 0.150000 1.400000
v -1.350000 0.200000 1.400000
v -1.350000 0.150000 0.900000
v -1.350000 0.200000 0.900000
v 1.350000 0.150000 1.400000
v 1.350000 0.200000 1.400000
v 1.350000 0.150000 0.900000
v 1.350000 0.200000 0.900000
v -1.350000 0.150000 0.900000
v -1.350000 0.200000 0.900000
v 1.350000 0.150000 0.900000
v 1.350000 0.200000 0.900000
v -1.350000 0.150000 0.850000
v 1.350000 0.150000 0.850000
v 1.350000 0.191769 0.893530
v -1.350000 0.191769 0.893530
v -1.350000 0.200000 0.890000
v 1.350000 0.200000 0.890000
v -1.350000 0.550000 1.400000
v -1.350000 0.650000 1.400000
v -1.350000 0.600000 0.950000
v -1.350000 0.650000 0.950000
v 1.350000 0.550000 1.400000
v 1.350000 0.650000 1.400000
v 1.350000 0.600000 0.950000
v 1.350000 0.650000 0.950000
v -1.350000 0.600000 0.950000
v -1.350000 0.650000 0.950000
v 1.350000 0.600000 0.950000
v 1.350000 0.650000 0.950000
v -1.350000 0.600000 0.900000
v 1.350000 0.600000 0.900000
v 1.350000 0.639906 0.943530
v -1.350000 0.639906 0.943530
v -1.350000 0.650000 0.940000
v 1.350000 0.650000 0.940000
v -1.350000 0.150000 1.400000
v -1.350000 1.680000 1.400000
v 1.350000 0.150000 1.400000
v 1.350000 1.680000 1.400000
v -1.350000 0.150000 1.420000
v -1.350000 1.680000 1.420000
v 1.350000 1.680000 1.420000
v 1.350000 0.150000 1.420000
v -1.350000 0.950000 1.400000
v -1.350000 1.050000 1.400000
v -1.350000 1.000000 0.950000
v -1.350000 1.050000 0.950000
v 1.350000 0.950000 1.400000
v 1.350000 1.050000 1.400000
v 1.350000 1.000000 0.950000
v 1.350000 1.050000 0.950000
v -1.350000 1.000000 0.950000
v -1.350000 1.050000 0.950000
v 1.350000 1.000000 0.950000
v 1.350000 1.050000 0.950000
v -1.350000 1.000000 0.900000
v 1.350000 1.000000 0.900000
v 1.350000 1.039906 0.943530
v -1.350000 1.039906 0.943530
v -1.350000 1.050000 0.940000
v 1.350000 1.050000 0.940000
v -1.350000 1.350000 1.400000
v -1.350000 1.450000 1.400000
v -1.350000 1.400000 0.950000
v -1.350000 1.450000 0.950000
v 1.350000 1.350000 1.400000
v 1.350000 1.450000 1.400000
v 1.350000 1.400000 0.950000
v 1.350000 1.450000 0.950000
v -1.350000 1.400000 0.950000
v -1.350000 1.450000 0.950000
v 1.350000 1.400000 0.950000
v 1.350000 1.450000 0.950000
v -1.350000 1.400000 0.900000
v 1.350000 1.400000 0.900000
v 1.350000 1.439906 0.943530
v -1.350000 1.439906 0.943530
v -1.350000 1.450000 0.940000
v 1.350000 1.450000 0.940000
v 1.260000 -0.000000 1.490000
v 1.260000 0.050000 1.490000
v 1.260000 -0.000000 1.410000
v 1.260000 0.050000 1.410000
v 1.340000 -0.000000 1.490000
v 1.340000 0.050000 1.490000
v 1.340000 -0.000000 1.410000
v 1.340000 0.050000 1.410000
v 1.260000 -0.000000 1.010000
v 1.260000 0.050000 1.010000
v 1.260000 -0.000000 0.930000
v 1.260000 0.050000 0.930000
v 1.340000 -0.000000 1.010000
v 1.340000 0.050000 1.010000
v 1.340000 -0.000000 0.930000
v 1.340000 0.050000 0.930000
v -1.340000 -0.000000 1.490000
v -1.340000 0.050000 1.490000
v -1.340000 -0.000000 1.410000
v -1.340000 0.050000 1.410000
v -1.260000 -0.000000 1.490000
v -1.260000 0.050000 1.490000
v -1.260000 -0.000000 1.410000
v -1.260000 0.050000 1.410000
v -1.340000 -0.000000 1.010000
v -1.340000 0.050000 1.010000
v -1.340000 -0.000000 0.930000
v -1.340000 0.050000 0.930000
v -1.260000 -0.000000 1.010000
v -1.260000 0.050000 1.010000
v -1.260000 -0.000000 0.930000
v -1.260000 0.050000 0.930000
vn -1.0000 -0.0000 -0.0000
vn -0.0000 -0.0000 -1.0000
vn 1.0000 -0.0000 -0.0000
vn -0.0000 -0.0000 1.0000
vn -0.0000 -1.0000 -0.0000
vn -0.0000 1.0000 -0.0000
vn -0.0000 -0.7216 0.6924
vn -0.0000 -0.1531 -0.9882
vn -0.0000 0.6247 -0.7809
vn -0.0000 -0.9939 -0.1104
vn -0.0000 -0.7371 0.6758
vn -0.0000 -0.1600 -0.9871
vt 0.703679 0.652081
vt 0.663508 0.692251
vt 0.663508 0.652081
vt 0.703679 0.692251
vt 0.663508 0.732422
vt 0.703679 0.732422
vt 0.663508 0.772592
vt 0.703679 0.772592
vt 0.663508 0.812763
vt 0.623338 0.772592
vt 0.623338 0.732422
vt 0.743850 0.732422
vt 0.772981 0.678190
vt 0.613737 0.837435
vt 0.613737 0.678190
vt 0.772981 0.837435
vt 0.296687 0.688686
vt 0.271006 0.714367
vt 0.271006 0.688686
vt 0.168141 0.714367
vt 0.193822 0.740048
vt 0.168141 0.740048
vt 0.193822 0.714367
vt 0.219503 0.740048
vt 0.193822 0.765729
vt 0.168141 0.765729
vt 0.168141 0.688686
vt 0.313446 0.315906
vt 0.162095 0.323891
vt 0.389121 0.311913
vt 0.237771 0.319898
vt 0.296687 0.714438
vt 0.271006 0.740119
vt 0.271006 0.714438
vt 0.219574 0.740048
vt 0.245255 0.714367
vt 0.245255 0.740048
vt 0.270936 0.740048
vt 0.245255 0.765729
vt 0.219574 0.765729
vt 0.219574 0.688686
vt 0.219574 0.714367
vt 0.313446 0.315906
vt 0.162095 0.323891
vt 0.389121 0.311913
vt 0.237771 0.319898
vt 0.172555 0.819632
vt 0.284476 0.707711
vt 0.172555 0.707711
vt 0.284476 0.819632
vt 0.296687 0.740190
vt 0.271006 0.765871
vt 0.271006 0.740190
vt 0.168141 0.817162
vt 0.193822 0.791481
vt 0.193822 0.817162
vt 0.219503 0.817162
vt 0.193822 0.842843
vt 0.168141 0.842843
vt 0.168141 0.765800
vt 0.168141 0.791481
vt 0.313446 0.315906
vt 0.162095 0.323891
vt 0.389121 0.311913
vt 0.237771 0.319898
vt 0.296687 0.765942
vt 0.271006 0.791623
vt 0.271006 0.765942
vt 0.219574 0.817162
vt 0.245255 0.791481
vt 0.245255 0.817162
vt 0.270936 0.817162
vt 0.245255 0.842843
vt 0.219574 0.842843
vt 0.219574 0.765800
vt 0.219574 0.791481
vt 0.313446 0.315906
vt 0.162095 0.323891
vt 0.389121 0.311913
vt 0.237771 0.319898
vt 0.670059 0.662403
vt 0.648656 0.683806
vt 0.648656 0.662403
vt 0.670059 0.683806
vt 0.648656 0.705210
vt 0.670059 0.705210
vt 0.648656 0.726614
vt 0.670059 0.726614
vt 0.648656 0.748017
vt 0.627252 0.726614
vt 0.627252 0.705210
vt 0.691463 0.705210
vt 0.734330 0.662403
vt 0.712926 0.683806
vt 0.712926 0.662403
vt 0.734330 0.683806
vt 0.712926 0.705210
vt 0.734330 0.705210
vt 0.712926 0.726614
vt 0.734330 0.726614
vt 0.712926 0.748017
vt 0.691522 0.726614
vt 0.691522 0.705210
vt 0.755733 0.705210
vt 0.670059 0.748077
vt 0.648656 0.769480
vt 0.648656 0.748077
vt 0.670059 0.769480
vt 0.648656 0.790884
vt 0.670059 0.790884
vt 0.648656 0.812287
vt 0.670059 0.812287
vt 0.648656 0.833691
vt 0.627252 0.812287
vt 0.627252 0.790884
vt 0.691463 0.790884
vt 0.734330 0.748077
vt 0.712926 0.769480
vt 0.712926 0.748077
vt 0.734330 0.769480
vt 0.712926 0.790884
vt 0.734330 0.790884
vt 0.712926 0.812287
vt 0.734330 0.812287
vt 0.712926 0.833691
vt 0.691522 0.812287
vt 0.691522 0.790884
vt 0.755733 0.790884
vt 0.703679 0.812763
vt 0.743850 0.772592
vt 0.296687 0.714367
vt 0.219503 0.714367
vt 0.193822 0.688686
vt 0.296687 0.740119
vt 0.270936 0.714367
vt 0.245255 0.688686
vt 0.296687 0.765871
vt 0.219503 0.791481
vt 0.193822 0.765800
vt 0.296687 0.791623
vt 0.270936 0.791481
vt 0.245255 0.765800
vt 0.670059 0.748017
vt 0.691463 0.726614
vt 0.734330 0.748017
vt 0.755733 0.726614
vt 0.670059 0.833691
vt 0.691463 0.812287
vt 0.734330 0.833691
vt 0.755733 0.812287
s 0
f 2/1/1 3/2/1 1/3/1
f 4/4/2 7/5/2 3/2/2
f 8/6/3 5/7/3 7/5/3
f 6/8/4 1/9/4 5/7/4
f 7/5/5 1/10/5 3/11/5
f 4/12/6 6/8/6 8/6/6
f 12/13/4 9/14/4 11/15/4
f 13/14/2 16/13/2 15/15/2
f 16/13/6 10/16/6 12/13/6
f 15/15/3 12/13/3 11/15/3
f 13/14/5 11/15/5 9/14/5
f 14/16/1 9/14/1 10/16/1
f 18/17/1 19/18/1 17/19/1
f 24/20/3 21/21/3 23/22/3
f 22/23/4 17/24/4 21/21/4
f 23/22/5 17/25/5 19/26/5
f 20/27/6 22/23/6 24/20/6
f 20/27/2 23/22/2 19/26/2
f 27/28/4 26/29/4 25/30/4
f 29/30/7 31/28/7 32/30/7
f 32/30/8 27/28/8 25/30/8
f 29/30/9 34/28/9 30/28/9
f 28/31/6 33/30/6 26/29/6
f 25/30/1 26/29/1 32/30/1
f 33/30/1 32/30/1 26/29/1
f 32/30/1 33/30/1 29/30/1
f 27/28/3 31/28/3 28/31/3
f 34/28/3 28/31/3 31/28/3
f 31/28/3 30/28/3 34/28/3
f 36/32/1 37/33/1 35/34/1
f 41/35/3 40/36/3 39/37/3
f 40/36/4 35/38/4 39/37/4
f 41/35/10 35/39/10 37/40/10
f 38/41/6 40/36/6 42/42/6
f 38/41/2 41/35/2 37/40/2
f 45/43/4 44/44/4 43/45/4
f 47/45/11 49/43/11 50/45/11
f 50/45/12 45/43/12 43/45/12
f 47/45/9 52/43/9 48/43/9
f 46/46/6 51/45/6 44/44/6
f 43/45/1 44/44/1 50/45/1
f 51/45/1 50/45/1 44/44/1
f 50/45/1 51/45/1 47/45/1
f 45/43/3 49/43/3 46/46/3
f 52/43/3 46/46/3 49/43/3
f 49/43/3 48/43/3 52/43/3
f 53/47/2 56/48/2 55/49/2
f 59/48/4 57/47/4 60/49/4
f 55/49/5 57/47/5 53/47/5
f 53/47/1 58/50/1 54/50/1
f 54/50/6 59/48/6 56/48/6
f 56/48/3 60/49/3 55/49/3
f 62/51/1 63/52/1 61/53/1
f 67/54/3 66/55/3 65/56/3
f 66/55/4 61/57/4 65/56/4
f 67/54/10 61/58/10 63/59/10
f 64/60/6 66/55/6 68/61/6
f 64/60/2 67/54/2 63/59/2
f 71/62/4 70/63/4 69/64/4
f 73/64/11 75/62/11 76/64/11
f 76/64/12 71/62/12 69/64/12
f 73/64/9 78/62/9 74/62/9
f 72/65/6 77/64/6 70/63/6
f 69/64/1 70/63/1 76/64/1
f 77/64/1 76/64/1 70/63/1
f 76/64/1 77/64/1 73/64/1
f 71/62/3 75/62/3 72/65/3
f 78/62/3 72/65/3 75/62/3
f 75/62/3 74/62/3 78/62/3
f 80/66/1 81/67/1 79/68/1
f 85/69/3 84/70/3 83/71/3
f 84/70/4 79/72/4 83/71/4
f 85/69/10 79/73/10 81/74/10
f 82/75/6 84/70/6 86/76/6
f 82/75/2 85/69/2 81/74/2
f 89/77/4 88/78/4 87/79/4
f 91/79/11 93/77/11 94/79/11
f 94/79/12 89/77/12 87/79/12
f 91/79/9 96/77/9 92/77/9
f 90/80/6 95/79/6 88/78/6
f 87/79/1 88/78/1 94/79/1
f 95/79/1 94/79/1 88/78/1
f 94/79/1 95/79/1 91/79/1
f 89/77/3 93/77/3 90/80/3
f 96/77/3 90/80/3 93/77/3
f 93/77/3 92/77/3 96/77/3
f 98/81/1 99/82/1 97/83/1
f 100/84/2 103/85/2 99/82/2
f 104/86/3 101/87/3 103/85/3
f 102/88/4 97/89/4 101/87/4
f 103/85/5 97/90/5 99/91/5
f 100/92/6 102/88/6 104/86/6
f 106/93/1 107/94/1 105/95/1
f 108/96/2 111/97/2 107/94/2
f 112/98/3 109/99/3 111/97/3
f 110/100/4 105/101/4 109/99/4
f 111/97/5 105/102/5 107/103/5
f 108/104/6 110/100/6 112/98/6
f 114/105/1 115/106/1 113/107/1
f 116/108/2 119/109/2 115/106/2
f 120/110/3 117/111/3 119/109/3
f 118/112/4 113/113/4 117/111/4
f 119/109/5 113/114/5 115/115/5
f 116/116/6 118/112/6 120/110/6
f 122/117/1 123/118/1 121/119/1
f 124/120/2 127/121/2 123/118/2
f 128/122/3 125/123/3 127/121/3
f 126/124/4 121/125/4 125/123/4
f 127/121/5 121/126/5 123/127/5
f 124/128/6 126/124/6 128/122/6
f 2/1/1 4/4/1 3/2/1
f 4/4/2 8/6/2 7/5/2
f 8/6/3 6/8/3 5/7/3
f 6/8/4 2/129/4 1/9/4
f 7/5/5 5/7/5 1/10/5
f 4/12/6 2/130/6 6/8/6
f 12/13/4 10/16/4 9/14/4
f 13/14/2 14/16/2 16/13/2
f 16/13/6 14/16/6 10/16/6
f 15/15/3 16/13/3 12/13/3
f 13/14/5 15/15/5 11/15/5
f 14/16/1 13/14/1 9/14/1
f 18/17/1 20/131/1 19/18/1
f 24/20/3 22/23/3 21/21/3
f 22/23/4 18/132/4 17/24/4
f 23/22/5 21/21/5 17/25/5
f 20/27/6 18/133/6 22/23/6
f 20/27/2 24/20/2 23/22/2
f 27/28/4 28/31/4 26/29/4
f 29/30/7 30/28/7 31/28/7
f 32/30/8 31/28/8 27/28/8
f 29/30/9 33/30/9 34/28/9
f 28/31/6 34/28/6 33/30/6
f 36/32/1 38/134/1 37/33/1
f 41/35/3 42/42/3 40/36/3
f 40/36/4 36/135/4 35/38/4
f 41/35/10 39/37/10 35/39/10
f 38/41/6 36/136/6 40/36/6
f 38/41/2 42/42/2 41/35/2
f 45/43/4 46/46/4 44/44/4
f 47/45/11 48/43/11 49/43/11
f 50/45/12 49/43/12 45/43/12
f 47/45/9 51/45/9 52/43/9
f 46/46/6 52/43/6 51/45/6
f 53/47/2 54/50/2 56/48/2
f 59/48/4 58/50/4 57/47/4
f 55/49/5 60/49/5 57/47/5
f 53/47/1 57/47/1 58/50/1
f 54/50/6 58/50/6 59/48/6
f 56/48/3 59/48/3 60/49/3
f 62/51/1 64/137/1 63/52/1
f 67/54/3 68/61/3 66/55/3
f 66/55/4 62/138/4 61/57/4
f 67/54/10 65/56/10 61/58/10
f 64/60/6 62/139/6 66/55/6
f 64/60/2 68/61/2 67/54/2
f 71/62/4 72/65/4 70/63/4
f 73/64/11 74/62/11 75/62/11
f 76/64/12 75/62/12 71/62/12
f 73/64/9 77/64/9 78/62/9
f 72/65/6 78/62/6 77/64/6
f 80/66/1 82/140/1 81/67/1
f 85/69/3 86/76/3 84/70/3
f 84/70/4 80/141/4 79/72/4
f 85/69/10 83/71/10 79/73/10
f 82/75/6 80/142/6 84/70/6
f 82/75/2 86/76/2 85/69/2
f 89/77/4 90/80/4 88/78/4
f 91/79/11 92/77/11 93/77/11
f 94/79/12 93/77/12 89/77/12
f 91/79/9 95/79/9 96/77/9
f 90/80/6 96/77/6 95/79/6
f 98/81/1 100/84/1 99/82/1
f 100/84/2 104/86/2 103/85/2
f 104/86/3 102/88/3 101/87/3
f 102/88/4 98/143/4 97/89/4
f 103/85/5 101/87/5 97/90/5
f 100/92/6 98/144/6 102/88/6
f 106/93/1 108/96/1 107/94/1
f 108/96/2 112/98/2 111/97/2
f 112/98/3 110/100/3 109/99/3
f 110/100/4 106/145/4 105/101/4
f 111/97/5 109/99/5 105/102/5
f 108/104/6 106/146/6 110/100/6
f 114/105/1 116/108/1 115/106/1
f 116/108/2 120/110/2 119/109/2
f 120/110/3 118/112/3 117/111/3
f 118/112/4 114/147/4 113/113/4
f 119/109/5 117/111/5 113/114/5
f 116/116/6 114/148/6 118/112/6
f 122/117/1 124/120/1 123/118/1
f 124/120/2 128/122/2 127/121/2
f 128/122/3 126/124/3 125/123/3
f 126/124/4 122/149/4 121/125/4
f 127/121/5 125/123/5 121/126/5
f 124/128/6 122/150/6 126/124/6
