# Blender v3.6.2 OBJ File: 'assets.blend1'
# www.blender.org
o Cave20x203xDoor_Plane
v -7.560409 0.000000 7.504906
v 7.575872 1.000000 7.464000
v -8.770202 4.000000 -8.368806
v 4.771091 3.476982 -9.534320
v 9.999999 1.000000 -7.500000
v 9.999999 1.000000 -4.500000
v 9.135480 4.000000 -8.982254
v -2.686786 4.497954 -7.738607
v -9.999999 1.000000 -0.500000
v -9.999999 1.000000 -3.499999
v -8.318311 4.000000 -5.657495
v -7.831004 0.000000 0.481898
v -8.065237 0.000000 5.563999
v -5.924943 0.000000 7.942451
v -1.686834 0.999987 7.936658
v 4.025496 1.000000 8.515401
v 8.332739 1.000000 2.990576
v 7.716041 1.000000 -0.927934
v 4.942987 1.000000 -8.689851
v 8.450172 1.000000 -8.245525
v -2.305223 1.000000 -6.760331
v -7.141294 1.000000 -7.229232
v -7.634614 1.000000 -5.032442
v -6.900903 0.000000 -4.834905
v -6.464024 0.000000 -6.354424
v -2.287482 0.000000 -6.110909
v 4.830109 0.000000 -7.730383
v 7.857560 0.000000 -7.511815
v 9.999999 0.000000 -7.000000
v 10.000000 0.000000 -5.000000
v 9.999999 4.000000 -8.000000
v 9.999999 4.000000 -4.000000
v 7.038770 0.000000 -1.435888
v 7.674281 0.000000 2.976466
v 6.641427 0.000000 6.461074
v 4.073846 0.000000 7.697784
v -1.913828 0.000000 7.484982
v -2.500000 1.000000 10.000000
v -5.500000 1.000000 10.000000
v -3.000000 0.000000 10.000000
v -5.000000 0.000000 10.000001
v -1.999999 4.000000 10.000000
v -6.000000 4.000000 10.000000
v -9.999999 0.000000 -3.000000
v -9.999999 0.000000 -1.000000
v -9.999999 4.000000 -4.000000
v -9.999999 4.000000 0.000000
v 8.596494 4.000000 -0.623162
v 9.305376 4.500000 2.750709
v 8.715005 4.000000 8.324698
v 4.049013 4.184607 9.318720
v -0.971191 4.000000 8.727334
v -6.392188 1.000000 8.284129
v -8.150198 1.000000 7.946073
v -8.540772 1.000000 5.556865
v -8.319087 1.000000 0.949103
v -8.886310 4.338635 5.628435
v -8.623127 4.000000 1.176913
v -8.385362 4.000000 8.237676
v -6.698774 4.000000 8.621549
v 8.865012 1.000000 -2.968614
v 8.605278 0.000000 -3.509216
v 9.233819 4.400000 -2.512635
v 0.625734 0.999993 7.461442
v 0.655480 0.000000 6.933329
v 0.739361 3.635581 8.332582
v -7.264785 0.000000 2.795181
v -7.791276 1.000000 2.942806
v -8.140034 4.173688 3.042013
v 5.605202 0.000000 5.926031
v 5.439286 0.000000 3.281238
v 4.161891 0.000000 6.417742
v 2.077749 0.000000 5.544923
v 4.973094 0.000000 -2.011568
v 6.708918 0.000000 -4.152623
v -2.489508 0.000000 5.961122
v 3.810434 0.000000 4.165126
v 7.844021 1.000000 0.961105
v 6.735594 0.000000 0.995996
v 9.107551 4.241041 1.003317
v 5.231700 0.000000 1.115673
v 3.898244 0.000000 -4.423532
v -1.824696 0.000000 -3.780124
v -5.851133 0.000000 -2.904682
v -7.731141 0.000000 -2.195228
v -5.146081 0.000000 6.283137
v -4.909037 0.000000 3.607917
v -5.654035 0.000000 0.323152
v -1.488818 0.000000 -0.320256
v -0.457376 0.000000 2.673397
vt 0.000000 0.000000
vt 0.000000 0.000000
vt 0.000000 0.000000
vt 0.000000 0.000000
vt 0.000000 0.000000
vt 0.000000 0.000000
vt 0.000000 0.000000
vt 0.000000 0.000000
vt 0.000000 0.000000
vt 0.000000 0.000000
vt 0.000000 0.000000
vt 0.000000 0.000000
vt 0.000000 0.000000
vt 0.000000 0.000000
vt 0.000000 0.000000
vt 0.000000 0.000000
vt 0.000000 0.000000
vt 0.000000 0.000000
vt 0.000000 0.000000
vt 0.000000 0.000000
vt 0.000000 0.000000
vt 0.000000 0.000000
vt 0.000000 0.000000
vt 0.000000 0.000000
vt 0.000000 0.000000
vt 0.000000 0.000000
vt 0.000000 0.000000
vt 0.000000 0.000000
vt 0.000000 0.000000
vt 0.000000 0.000000
vt 0.000000 0.000000
vt 0.000000 0.000000
vt 0.000000 0.000000
vt 0.000000 0.000000
vt 0.000000 0.000000
vt 0.000000 0.000000
vt 0.000000 0.000000
vt 0.000000 0.000000
vt 0.000000 0.000000
vt 0.000000 0.000000
vt 0.000000 0.000000
vt 0.000000 0.000000
vt 0.000000 0.000000
vt 0.000000 0.000000
vt 0.000000 0.000000
vt 0.000000 0.000000
vt 0.000000 0.000000
vt 0.000000 0.000000
vt 0.000000 0.000000
vt 0.000000 0.000000
vt 0.000000 0.000000
vt 0.000000 0.000000
vt 0.000000 0.000000
vt 0.000000 0.000000
vt 0.000000 0.000000
vt 0.000000 0.000000
vt 0.000000 0.000000
vt 0.000000 0.000000
vt 0.000000 0.000000
vt 0.000000 0.000000
vt 0.000000 0.000000
vt 0.000000 0.000000
vt 0.000000 0.000000
vt 0.000000 0.000000
vt 0.000000 0.000000
vt 0.000000 0.000000
vt 0.000000 0.000000
vt 0.000000 0.000000
vt 0.000000 0.000000
vt 0.000000 0.000000
vt 0.000000 0.000000
vt 0.000000 0.000000
vt 0.000000 0.000000
vt 0.000000 0.000000
vt 0.000000 0.000000
vt 0.000000 0.000000
vt 0.000000 0.000000
vt 0.000000 0.000000
vt 0.000000 0.000000
vt 0.000000 0.000000
vt 0.000000 0.000000
vt 0.000000 0.000000
vt 0.000000 0.000000
vt 0.000000 0.000000
vt 0.000000 0.000000
vt 0.000000 0.000000
vt 0.000000 0.000000
vt 0.000000 0.000000
vt 0.000000 0.000000
vt 0.000000 0.000000
vn -0.1194 0.3129 0.9422
vn 0.2612 0.2863 0.9219
vn -0.1223 0.2937 0.9480
vn 0.8916 0.4277 -0.1486
vn -0.0980 0.6258 0.7738
vn 0.1871 0.5374 0.8223
vn -0.0752 0.6272 0.7752
vn 0.7653 0.6049 0.2200
vn -0.1769 0.6482 0.7406
vn -0.4287 0.1485 0.8912
vn 0.1935 0.4627 -0.8652
vn -0.1794 0.7752 -0.6058
vn -0.8093 0.5362 -0.2399
vn -0.6337 0.7129 0.3004
vn -0.7041 0.4704 -0.5320
vn 0.5385 0.1385 0.8312
vn 0.4476 0.4777 0.7559
vn -0.8560 0.3613 -0.3697
vn -0.9467 0.1415 -0.2894
vn -0.9071 0.3506 0.2331
vn -0.9266 0.3705 -0.0649
vn -0.2759 0.2370 -0.9315
vn 0.2834 0.2899 -0.9141
vn -0.7712 0.1285 -0.6234
vn -0.1571 0.2866 -0.9451
vn 0.8712 0.4215 0.2518
vn 0.8262 0.5469 -0.1351
vn 0.1658 0.4783 -0.8624
vn 0.7701 0.4966 -0.4004
vn 0.9791 0.1051 -0.1743
vn 0.9568 0.0966 0.2743
vn 0.2205 0.1115 -0.9690
vn 0.8831 0.1406 -0.4477
vn 0.5214 0.3816 -0.7632
vn 0.6478 0.1252 -0.7514
vn -0.8598 0.1584 -0.4855
vn -0.6910 0.3233 -0.6465
vn -0.1870 0.4544 -0.8709
vn 0.9601 0.1166 -0.2542
vn 0.8383 0.5051 -0.2052
vn 0.0000 1.0000 0.0000
vn -0.9600 0.2715 0.0685
vn -0.7996 0.5922 -0.0997
vn -0.1525 0.2684 0.9512
vn 0.2430 0.3281 0.9129
vn -0.0932 0.2587 0.9614
vn 0.9424 0.2589 0.2116
vn -0.0518 0.6944 0.7177
vn 0.1914 0.6682 0.7189
vn -0.0489 0.5434 0.8381
vn 0.7425 0.6487 0.1667
vn -0.3952 0.4108 0.8216
vn -0.7121 0.3166 0.6267
vn 0.2318 0.6224 -0.7476
vn -0.3529 0.5820 -0.7327
vn -0.6670 0.7365 -0.1129
vn -0.8200 0.5372 0.1975
vn -0.6674 0.6429 -0.3758
vn 0.6708 0.2947 0.6806
vn 0.5014 0.3869 0.7739
vn -0.8436 0.4218 -0.3324
vn -0.8333 0.2922 -0.4692
vn -0.9593 0.2749 0.0650
vn -0.9537 0.2540 -0.1614
vn -0.1836 0.3349 -0.9242
vn 0.2414 0.2357 -0.9414
vn -0.8865 0.3035 -0.3494
vn -0.1910 0.3155 -0.9295
vn 0.8736 0.4172 0.2505
vn 0.8798 0.4167 -0.2288
vn 0.2356 0.4110 -0.8807
vn 0.8299 0.4149 -0.3731
vn 0.9827 0.0926 -0.1606
vn 0.9582 0.0934 0.2705
vn 0.1873 0.1287 -0.9738
vn 0.8777 0.1463 -0.4564
vn 0.5418 0.5581 -0.6285
vn 0.6448 0.1226 -0.7544
vn -0.7995 0.0988 -0.5925
vn -0.7097 0.4687 -0.5260
vn -0.1809 0.4387 -0.8803
vn 0.9592 0.1135 -0.2590
vn 0.8482 0.4797 -0.2246
vn -0.9100 0.3519 0.2191
vn -0.6684 0.7424 0.0453
s off
f 20/1/1 4/2/1 19/3/1
f 21/4/2 4/2/2 8/5/2
f 22/6/3 8/5/3 3/7/3
f 11/8/4 22/6/4 3/7/4
f 19/3/5 28/9/5 20/1/5
f 27/10/6 21/4/6 26/11/6
f 25/12/7 21/4/7 22/6/7
f 25/12/8 23/13/8 24/14/8
f 29/15/9 20/1/9 28/9/9
f 31/16/10 20/1/10 5/17/10
f 64/18/11 36/19/11 65/20/11
f 35/21/12 16/22/12 2/23/12
f 35/21/13 17/24/13 34/25/13
f 34/25/14 78/26/14 79/27/14
f 33/28/15 61/29/15 62/30/15
f 23/13/16 46/31/16 10/32/16
f 23/13/17 44/33/17 24/14/17
f 40/34/18 15/35/18 37/36/18
f 61/29/19 48/37/19 63/38/19
f 48/37/20 78/26/20 80/39/20
f 49/40/21 2/23/21 50/41/21
f 51/42/22 2/23/22 16/22/22
f 66/43/23 16/22/23 64/18/23
f 52/44/24 38/45/24 42/46/24
f 66/43/25 15/35/25 52/44/25
f 68/47/26 13/48/26 67/49/26
f 1/50/27 55/51/27 54/52/27
f 53/53/28 1/50/28 54/52/28
f 39/54/29 14/55/29 53/53/29
f 59/56/30 55/51/30 57/57/30
f 69/58/31 55/51/31 68/47/31
f 60/59/32 54/52/32 59/56/32
f 43/60/33 53/53/33 60/59/33
f 9/61/34 12/62/34 45/63/34
f 47/64/35 56/65/35 9/61/35
f 32/66/36 61/29/36 63/38/36
f 62/30/37 6/67/37 30/68/37
f 37/36/38 64/18/38 65/20/38
f 58/69/39 68/47/39 56/65/39
f 56/65/40 67/49/40 12/62/40
f 70/70/41 34/25/41 71/71/41
f 36/19/41 70/70/41 72/72/41
f 36/19/41 73/73/41 65/20/41
f 72/72/41 70/70/41 77/74/41
f 71/71/41 79/27/41 81/75/41
f 75/76/41 33/28/41 62/30/41
f 65/20/41 76/77/41 37/36/41
f 73/73/41 72/72/41 77/74/41
f 71/71/41 77/74/41 70/70/41
f 81/75/41 33/28/41 74/78/41
f 80/39/42 17/24/42 49/40/42
f 79/27/43 18/79/43 33/28/43
f 73/73/41 90/80/41 76/77/41
f 29/15/41 28/9/41 30/68/41
f 30/68/41 75/76/41 62/30/41
f 27/10/41 75/76/41 28/9/41
f 82/81/41 26/11/41 83/82/41
f 75/76/41 82/81/41 74/78/41
f 25/12/41 24/14/41 26/11/41
f 26/11/41 84/83/41 83/82/41
f 85/84/41 24/14/41 44/33/41
f 45/63/41 85/84/41 44/33/41
f 40/34/41 14/55/41 41/85/41
f 86/86/41 37/36/41 76/77/41
f 14/55/41 86/86/41 1/50/41
f 1/50/41 86/86/41 13/48/41
f 87/87/41 13/48/41 86/86/41
f 88/88/41 67/49/41 87/87/41
f 85/84/41 88/88/41 84/83/41
f 89/89/41 84/83/41 88/88/41
f 89/89/41 82/81/41 83/82/41
f 81/75/41 89/89/41 90/80/41
f 77/74/41 81/75/41 90/80/41
f 87/87/41 76/77/41 90/80/41
f 87/87/41 89/89/41 88/88/41
f 20/1/44 7/90/44 4/2/44
f 21/4/45 19/3/45 4/2/45
f 22/6/46 21/4/46 8/5/46
f 11/8/47 23/13/47 22/6/47
f 19/3/48 27/10/48 28/9/48
f 27/10/49 19/3/49 21/4/49
f 25/12/50 26/11/50 21/4/50
f 25/12/51 22/6/51 23/13/51
f 29/15/52 5/17/52 20/1/52
f 31/16/53 7/90/53 20/1/53
f 64/18/54 16/22/54 36/19/54
f 35/21/55 36/19/55 16/22/55
f 35/21/56 2/23/56 17/24/56
f 34/25/57 17/24/57 78/26/57
f 33/28/58 18/79/58 61/29/58
f 23/13/59 11/8/59 46/31/59
f 23/13/60 10/32/60 44/33/60
f 40/34/61 38/45/61 15/35/61
f 61/29/62 18/79/62 48/37/62
f 48/37/63 18/79/63 78/26/63
f 49/40/64 17/24/64 2/23/64
f 51/42/65 50/41/65 2/23/65
f 66/43/66 51/42/66 16/22/66
f 52/44/67 15/35/67 38/45/67
f 66/43/68 64/18/68 15/35/68
f 68/47/69 55/51/69 13/48/69
f 1/50/70 13/48/70 55/51/70
f 53/53/71 14/55/71 1/50/71
f 39/54/72 41/85/72 14/55/72
f 59/56/73 54/52/73 55/51/73
f 69/58/74 57/57/74 55/51/74
f 60/59/75 53/53/75 54/52/75
f 43/60/76 39/54/76 53/53/76
f 9/61/77 56/65/77 12/62/77
f 47/64/78 58/69/78 56/65/78
f 32/66/79 6/67/79 61/29/79
f 62/30/80 61/29/80 6/67/80
f 37/36/81 15/35/81 64/18/81
f 58/69/82 69/58/82 68/47/82
f 56/65/83 68/47/83 67/49/83
f 70/70/41 35/21/41 34/25/41
f 36/19/41 35/21/41 70/70/41
f 36/19/41 72/72/41 73/73/41
f 71/71/41 34/25/41 79/27/41
f 75/76/41 74/78/41 33/28/41
f 65/20/41 73/73/41 76/77/41
f 81/75/41 79/27/41 33/28/41
f 80/39/84 78/26/84 17/24/84
f 79/27/85 78/26/85 18/79/85
f 73/73/41 77/74/41 90/80/41
f 30/68/41 28/9/41 75/76/41
f 27/10/41 82/81/41 75/76/41
f 82/81/41 27/10/41 26/11/41
f 26/11/41 24/14/41 84/83/41
f 85/84/41 84/83/41 24/14/41
f 45/63/41 12/62/41 85/84/41
f 40/34/41 37/36/41 14/55/41
f 86/86/41 14/55/41 37/36/41
f 87/87/41 67/49/41 13/48/41
f 88/88/41 12/62/41 67/49/41
f 85/84/41 12/62/41 88/88/41
f 89/89/41 83/82/41 84/83/41
f 89/89/41 74/78/41 82/81/41
f 81/75/41 74/78/41 89/89/41
f 77/74/41 71/71/41 81/75/41
f 87/87/41 86/86/41 76/77/41
f 87/87/41 90/80/41 89/89/41
