# Blender v3.6.2 OBJ File: 'assets.blend1'
# www.blender.org
o Corridor_Twist_7x7_Plane.003
v -7.000000 1.000000 -5.500000
v -7.000000 1.000000 -2.500000
v -7.000000 0.000000 -5.000000
v -7.000000 0.000000 -3.000000
v -7.000000 4.000000 -6.000000
v -7.000000 4.000000 -2.000000
v 5.500000 1.000000 7.000000
v 2.500000 1.000000 7.000000
v 5.000000 0.000000 7.000000
v 3.000001 0.000000 7.000000
v 6.000000 4.000000 7.000000
v 2.000000 4.000000 7.000000
v -3.581957 4.000000 1.940816
v -3.405708 1.000000 1.472910
v -3.154390 0.000000 0.213974
v -0.494180 0.000000 -5.653780
v -0.374214 1.000000 -6.139174
v -0.254248 4.000000 -6.624568
v 1.789045 4.000000 4.329227
v 5.325220 0.000000 3.159930
v 2.272968 1.000000 4.210588
v 3.076266 0.000000 3.952610
v 5.799453 1.000000 3.008959
v 6.273688 4.000000 2.857987
v -4.626089 1.000000 -1.592928
v -4.622898 0.000000 -2.458998
v -4.535399 1.000000 -5.770314
v -4.580427 4.000000 -6.265933
v -4.665259 4.000000 -1.096236
v -4.490372 0.000000 -5.274697
v 0.011344 1.000000 2.945004
v 0.553605 0.000000 2.029854
v 3.760356 1.000000 -3.488162
v 4.080549 4.000000 -3.865777
v -0.291009 4.000000 3.341427
v 3.440164 0.000000 -3.110548
v -1.919131 1.000000 2.975080
v -1.511165 0.000000 1.901244
v 2.495810 1.000000 -5.243199
v 2.723581 4.000000 -5.670563
v -2.163276 4.000000 3.404500
v 2.268040 0.000000 -4.815835
vt 0.000000 0.000000
vt 0.000000 0.000000
vt 0.000000 0.000000
vt 0.000000 0.000000
vt 0.000000 0.000000
vt 0.000000 0.000000
vt 0.000000 0.000000
vt 0.000000 0.000000
vt 0.000000 0.000000
vt 0.000000 0.000000
vt 0.000000 0.000000
vt 0.000000 0.000000
vt 0.000000 0.000000
vt 0.000000 0.000000
vt 0.000000 0.000000
vt 0.000000 0.000000
vt 0.000000 0.000000
vt 0.000000 0.000000
vt 0.000000 0.000000
vt 0.000000 0.000000
vt 0.000000 0.000000
vt 0.000000 0.000000
vt 0.000000 0.000000
vt 0.000000 0.000000
vt 0.000000 0.000000
vt 0.000000 0.000000
vt 0.000000 0.000000
vt 0.000000 0.000000
vt 0.000000 0.000000
vt 0.000000 0.000000
vt 0.000000 0.000000
vt 0.000000 0.000000
vt 0.000000 0.000000
vt 0.000000 0.000000
vt 0.000000 0.000000
vt 0.000000 0.000000
vt 0.000000 0.000000
vt 0.000000 0.000000
vt 0.000000 0.000000
vt 0.000000 0.000000
vt 0.000000 0.000000
vt 0.000000 0.000000
vn 0.9836 0.1618 -0.0801
vn 0.7819 0.6231 0.0196
vn -0.9054 0.4191 -0.0679
vn -0.9861 0.1526 -0.0652
vn -0.0000 1.0000 -0.0000
vn 0.0816 0.1560 0.9844
vn 0.0798 0.4275 0.9005
vn 0.8081 0.3871 -0.4440
vn 0.9266 0.0732 -0.3688
vn -0.9415 0.1391 0.3071
vn -0.8801 0.3861 0.2762
vn 0.4984 0.5691 -0.6540
vn 0.4852 0.1126 -0.8671
vn 0.3527 0.1538 -0.9230
vn 0.1995 0.4382 -0.8765
vn 0.0976 0.4455 0.8900
vn 0.1078 0.1636 0.9806
vn -0.0154 0.1295 -0.9915
vn 0.0451 0.6876 -0.7246
vn -0.7441 0.3986 0.5361
vn -0.7909 0.1448 0.5946
vn -0.3013 0.1569 0.9405
vn -0.2691 0.4297 0.8620
vn 0.4920 0.7269 -0.4792
vn 0.7028 0.1498 -0.6955
vn 0.9834 0.1639 -0.0777
vn 0.8921 0.4460 -0.0726
vn -0.8919 0.4459 -0.0755
vn -0.9837 0.1640 -0.0738
vn 0.0871 0.1636 0.9827
vn 0.0845 0.4455 0.8913
vn 0.7615 0.5730 -0.3031
vn 0.9365 0.1071 -0.3340
vn -0.9412 0.1637 0.2954
vn -0.8574 0.4455 0.2577
vn 0.3345 0.7285 -0.5978
vn 0.4234 0.1605 -0.8916
vn 0.3565 0.1571 -0.9210
vn 0.2773 0.6295 -0.7258
vn 0.0974 0.4451 0.8902
vn 0.1076 0.1634 0.9807
vn -0.0333 0.1390 -0.9897
vn -0.0107 0.7298 -0.6836
vn -0.7436 0.4311 0.5111
vn -0.8011 0.1582 0.5772
vn -0.2940 0.1641 0.9416
vn -0.2597 0.4467 0.8561
vn 0.4913 0.7226 -0.4862
vn 0.7093 0.1561 -0.6874
s off
f 19/1/1 8/2/1 21/3/1
f 21/3/2 10/4/2 22/5/2
f 20/6/3 7/7/3 23/8/3
f 23/8/4 11/9/4 24/10/4
f 22/5/5 9/11/5 20/6/5
f 26/12/5 16/13/5 30/14/5
f 28/15/6 17/16/6 18/17/6
f 27/18/7 16/13/7 17/16/7
f 25/19/8 15/20/8 26/12/8
f 29/21/9 14/22/9 25/19/9
f 32/23/5 20/6/5 36/24/5
f 33/25/10 24/10/10 34/26/10
f 36/24/11 23/8/11 33/25/11
f 32/23/12 21/3/12 22/5/12
f 31/27/13 19/1/13 21/3/13
f 6/28/14 25/19/14 2/29/14
f 2/29/15 26/12/15 4/30/15
f 1/31/16 30/14/16 27/18/16
f 5/32/17 27/18/17 28/15/17
f 4/30/5 30/14/5 3/33/5
f 37/34/18 35/35/18 31/27/18
f 38/36/19 31/27/19 32/23/19
f 42/37/20 33/25/20 39/38/20
f 39/38/21 34/26/21 40/39/21
f 38/36/5 36/24/5 42/37/5
f 15/20/5 42/37/5 16/13/5
f 18/17/22 39/38/22 40/39/22
f 17/16/23 42/37/23 39/38/23
f 14/22/24 38/36/24 15/20/24
f 13/40/25 37/34/25 14/22/25
f 19/1/26 12/41/26 8/2/26
f 21/3/27 8/2/27 10/4/27
f 20/6/28 9/11/28 7/7/28
f 23/8/29 7/7/29 11/9/29
f 22/5/5 10/4/5 9/11/5
f 26/12/5 15/20/5 16/13/5
f 28/15/30 27/18/30 17/16/30
f 27/18/31 30/14/31 16/13/31
f 25/19/32 14/22/32 15/20/32
f 29/21/33 13/40/33 14/22/33
f 32/23/5 22/5/5 20/6/5
f 33/25/34 23/8/34 24/10/34
f 36/24/35 20/6/35 23/8/35
f 32/23/36 31/27/36 21/3/36
f 31/27/37 35/35/37 19/1/37
f 6/28/38 29/21/38 25/19/38
f 2/29/39 25/19/39 26/12/39
f 1/31/40 3/33/40 30/14/40
f 5/32/41 1/31/41 27/18/41
f 4/30/5 26/12/5 30/14/5
f 37/34/42 41/42/42 35/35/42
f 38/36/43 37/34/43 31/27/43
f 42/37/44 36/24/44 33/25/44
f 39/38/45 33/25/45 34/26/45
f 38/36/5 32/23/5 36/24/5
f 15/20/5 38/36/5 42/37/5
f 18/17/46 17/16/46 39/38/46
f 17/16/47 16/13/47 42/37/47
f 14/22/48 37/34/48 38/36/48
f 13/40/49 41/42/49 37/34/49
